<?xml version="1.0" encoding="UTF-8" standalone="no"?><!DOCTYPE svg PUBLIC "-//W3C//DTD SVG 1.1//EN" "http://www.w3.org/Graphics/SVG/1.1/DTD/svg11.dtd"><svg width="100%" height="100%" viewBox="0 0 8334 8334" version="1.1" xmlns="http://www.w3.org/2000/svg" xmlns:xlink="http://www.w3.org/1999/xlink" xml:space="preserve" xmlns:serif="http://www.serif.com/" style="fill-rule:evenodd;clip-rule:evenodd;stroke-miterlimit:10;"><g id="Layer_1"><g><path d="M7918.796,5081.262c-236.238,-415.494 -302.717,-522.336 -427.366,-730.083c-120.493,-201.218 -121.087,-176.288 -189.94,-296.782c-4.155,-7.123 -8.903,-14.246 -13.058,-21.368c-198.844,-340.705 -165.604,-784.691 -206.56,-1017.368c-20.775,-117.526 -160.262,-71.228 -373.945,249.297c-213.683,320.524 -290.253,604.841 -290.253,604.841l0,1.187c-9.497,12.465 -17.807,26.117 -24.93,41.549c-1.781,4.155 -3.561,8.31 -5.342,11.871c-59.95,-367.416 -201.218,-762.729 -516.994,-943.766c-11.278,-6.529 -22.555,-12.465 -33.833,-18.994c-3.561,-1.781 -6.529,-3.561 -10.091,-5.342c-8.31,-4.749 -16.62,-8.903 -24.93,-13.652c-3.561,-1.781 -6.529,-3.561 -10.091,-5.342c-11.278,-5.936 -21.962,-11.278 -33.24,-17.213c-0.594,0 -0.594,-0.594 -1.187,-0.594c-11.278,-5.936 -23.149,-11.278 -34.427,-16.62c-3.561,-1.781 -6.529,-2.968 -10.091,-4.749c-8.31,-4.155 -17.213,-7.716 -25.523,-11.871c-3.561,-1.781 -7.123,-2.968 -10.684,-4.749c-10.684,-4.749 -21.962,-9.497 -32.646,-14.246c-0.594,0 -1.187,-0.594 -1.781,-0.594l-0.594,0c-460.012,-198.25 -962.76,-236.238 -1399.029,-174.508c-102.093,-132.958 -253.452,-271.852 -533.02,-297.969l0.594,-0.594c-332.396,-575.757 -961.573,-1406.746 -1276.162,-1685.721c-106.841,-94.97 -181.037,372.758 -237.425,1032.801c-54.608,641.049 -23.743,902.81 0,1216.805c-92.002,118.119 -144.83,261.762 -178.069,451.108c0,0 -201.812,273.039 -338.331,314.589c-136.52,41.549 -195.876,47.485 -362.074,106.841c-42.143,14.839 -100.312,52.827 -162.636,108.029c-332.989,-26.71 -972.851,-55.201 -994.813,40.362c-65.292,167.978 381.661,547.266 663.011,722.96c2.968,29.678 7.123,59.356 13.652,90.222c100.906,231.49 19.588,314.589 11.871,569.821c-5.936,201.812 -77.163,290.846 -136.52,391.752c-11.278,18.994 -18.994,42.143 -24.336,67.666c-305.092,233.27 -531.833,417.275 164.417,531.239c6.529,6.529 13.058,13.058 20.181,18.994c77.163,65.292 148.391,106.841 219.619,148.391c0,0 -142.455,267.104 5.936,350.203c334.77,187.566 944.953,105.061 1155.075,-81.318c35.02,-30.865 70.634,-68.26 105.654,-110.996c793.001,601.873 2973.16,999.561 3703.837,-629.177c5.936,33.833 14.246,71.228 26.71,114.558c89.628,315.182 533.614,744.922 1288.627,629.771c623.835,-96.751 1128.364,-678.443 540.736,-1711.244Z" style="fill:#092944;fill-rule:nonzero;stroke:#092944;stroke-width:252.38px;"/></g><g><path d="M2253.825,6586.539c690.908,655.294 3099.589,1180.598 3836.201,-601.28c736.612,-1781.878 -1918.397,-538.362 -1918.397,-538.362l-1968.85,857.106l51.046,282.536Z" style="fill:#3e3042;fill-rule:nonzero;"/><path d="M784.162,5746.053c-350.203,273.039 -712.276,486.722 112.777,611.37" style="fill:#af9d9d;fill-rule:nonzero;"/><g><g><clipPath id="_clip1"><path d="M2202.779,3035.248c-23.743,-351.983 -65.292,-601.28 -5.936,-1295.749c56.389,-660.043 130.584,-1127.771 237.425,-1032.801c314.589,278.975 943.766,1109.964 1276.162,1685.721l-773.413,753.826l-734.238,-110.996Z"/></clipPath><g clip-path="url(#_clip1)"><path d="M1484.567,-112.419l0,3721.644l3579.188,0l0,-3721.644l-3579.188,0Zm1453.637,2730.986c-308.653,-456.45 -509.871,-1300.498 -480.193,-2060.259l1756.948,1911.275c0,0 -967.509,605.435 -1276.755,148.984Z" style="fill:#af9d9d;fill-rule:nonzero;"/><path d="M2938.204,2618.567c309.247,456.45 1276.755,-148.984 1276.755,-148.984l-1756.948,-1911.275c-29.678,759.761 171.54,1603.809 480.193,2060.259Z" style="fill:#e4d2ae;fill-rule:nonzero;"/></g></g></g><path d="M3033.768,4000.976c373.945,-825.053 1537.33,-1371.132 2178.378,-1109.964c641.049,261.168 844.641,393.533 941.985,849.389c96.751,456.45 -799.53,1062.479 -799.53,1062.479l-2320.834,-801.904Z" style="fill:#3e3042;fill-rule:nonzero;"/><path d="M5470.94,3255.46c75.383,35.02 145.423,79.538 210.122,134.145c255.232,213.683 35.614,611.37 35.614,611.37l368.009,1020.929c0,0 385.816,-219.619 332.396,-860.667c-35.02,-420.243 -160.262,-959.792 -546.078,-1181.191c-74.789,-42.737 -151.359,-81.318 -229.116,-114.558" style="fill:#814b3f;fill-rule:nonzero;"/><g><g><clipPath id="_clip2"><path d="M6060.942,4541.119c189.94,1056.543 -499.781,1629.332 -1561.072,1863.79c-1061.292,234.458 -2027.02,54.014 -2208.056,-765.697c-146.017,-661.823 130.584,-1460.76 801.311,-1866.757c159.669,-96.751 506.903,-218.431 706.341,-281.943c1014.994,-320.524 2113.086,224.367 2261.477,1050.608Z"/></clipPath><g clip-path="url(#_clip2)"><path d="M1211.527,2054.088l0,5389.557l5389.557,-0l0,-5389.557l-5389.557,0Zm4979.998,2208.056c-17.807,522.336 -59.356,641.049 -273.039,979.38c-200.624,317.557 -920.024,819.118 -1709.463,872.538c-711.089,48.079 -1240.548,-100.906 -1234.612,-385.816c6.529,-318.15 302.717,-451.108 498.593,-664.791c186.379,-203.592 724.148,-140.675 1003.122,-362.074c278.975,-221.399 1733.206,-961.573 1715.399,-439.237Z" style="fill:#355756;fill-rule:nonzero;"/><path d="M4476.127,4701.381c-278.975,221.399 -816.743,158.481 -1003.122,362.074c-195.876,213.683 -492.064,346.641 -498.593,664.791c-5.936,284.911 523.523,433.895 1234.612,385.816c789.44,-53.421 1508.839,-554.982 1709.463,-872.538c213.683,-338.331 255.232,-457.044 273.039,-979.38c17.807,-522.336 -1436.424,217.838 -1715.399,439.237Z" style="fill:#c7ff91;fill-rule:nonzero;"/></g></g></g><g><clipPath id="_clip3"><path d="M4250.573,2701.072c-160.262,-213.683 -445.173,-451.108 -1181.191,-213.683c-736.019,237.425 -961.573,415.494 -1050.608,920.024c0,0 -201.812,273.039 -338.331,314.589c-136.52,41.549 -195.876,47.485 -362.074,106.841c-166.198,59.356 -587.628,468.915 -480.786,961.573c100.906,231.49 19.588,314.589 11.871,569.821c-5.936,201.812 -77.163,290.846 -136.52,391.752c-81.912,139.487 5.936,486.722 160.262,617.306c77.163,65.292 148.391,106.841 219.619,148.391c83.099,48.079 41.549,130.584 41.549,130.584l1336.705,-304.498l396.5,-2532.736l1602.622,-1044.672l-219.619,-65.292Z"/></clipPath><g clip-path="url(#_clip3)"><rect x="-1352.667" y="837.282" width="7271.154" height="7597.614" style="fill:#ba2701;"/></g><clipPath id="_clip4"><path d="M4250.573,2701.072c-160.262,-213.683 -445.173,-451.108 -1181.191,-213.683c-736.019,237.425 -961.573,415.494 -1050.608,920.024c0,0 -201.812,273.039 -338.331,314.589c-136.52,41.549 -195.876,47.485 -362.074,106.841c-166.198,59.356 -587.628,468.915 -480.786,961.573c100.906,231.49 19.588,314.589 11.871,569.821c-5.936,201.812 -77.163,290.846 -136.52,391.752c-81.912,139.487 5.936,486.722 160.262,617.306c77.163,65.292 148.391,106.841 219.619,148.391c83.099,48.079 41.549,130.584 41.549,130.584l1336.705,-304.498l396.5,-2532.736l1602.622,-1044.672l-219.619,-65.292Z"/></clipPath><g clip-path="url(#_clip4)"><path d="M1811.027,3460.833l207.747,-53.421c0,0 315.182,-260.574 646.984,-421.43c391.752,-189.94 225.554,-439.237 225.554,-439.237l-1299.904,-23.743l219.619,937.83Z" style="fill:#680c00;fill-rule:nonzero;"/></g><clipPath id="_clip5"><path d="M4250.573,2701.072c-160.262,-213.683 -445.173,-451.108 -1181.191,-213.683c-736.019,237.425 -961.573,415.494 -1050.608,920.024c0,0 -201.812,273.039 -338.331,314.589c-136.52,41.549 -195.876,47.485 -362.074,106.841c-166.198,59.356 -587.628,468.915 -480.786,961.573c100.906,231.49 19.588,314.589 11.871,569.821c-5.936,201.812 -77.163,290.846 -136.52,391.752c-81.912,139.487 5.936,486.722 160.262,617.306c77.163,65.292 148.391,106.841 219.619,148.391c83.099,48.079 41.549,130.584 41.549,130.584l1336.705,-304.498l396.5,-2532.736l1602.622,-1044.672l-219.619,-65.292Z"/></clipPath><g clip-path="url(#_clip5)"><path d="M1318.369,3828.843c0,0 445.173,-143.049 273.039,451.108c-146.61,506.903 611.37,154.327 611.37,154.327l378.1,714.651l-542.517,1350.951l-1788.407,377.506l-1204.934,-2181.94l1924.333,-950.889l349.015,84.286Z" style="fill:#680c00;fill-rule:nonzero;"/></g></g><g><g><clipPath id="_clip6"><path d="M160.92,3977.234c-83.099,213.683 664.791,771.633 842.86,813.182c178.069,41.549 379.881,-10.684 457.044,-326.46c59.356,-243.361 18.4,-489.69 -136.52,-510.465c-178.069,-23.743 -1136.674,-93.783 -1163.385,23.743Z"/></clipPath><g clip-path="url(#_clip6)"><path d="M-195.218,3104.695l0,2113.086l1875.661,0l0,-2113.086l-1875.661,0Zm1371.132,1341.454c-106.841,59.356 -943.766,-267.104 -943.766,-557.95c0,0 747.297,-358.512 1068.414,29.678c142.455,172.133 -17.807,468.915 -124.648,528.272Z" style="fill:#af9d9d;fill-rule:nonzero;"/><path d="M232.148,3888.199c0,290.846 836.925,617.306 943.766,557.95c106.841,-59.356 267.104,-356.138 124.648,-528.272c-321.118,-388.191 -1068.414,-29.678 -1068.414,-29.678Z" style="fill:#e4d2ae;fill-rule:nonzero;"/></g></g></g><path d="M5488.153,4941.774c-86.067,43.924 -178.663,78.944 -276.007,97.938c-145.423,28.491 -281.943,-71.821 -433.301,-29.678c-163.824,45.704 -400.655,259.387 -533.02,322.305c-371.571,176.288 -944.953,103.28 -1146.765,86.067c-201.812,-17.213 -534.207,-153.733 -534.207,-153.733l118.713,-1003.122c635.113,-267.104 1572.943,-462.98 2308.962,-664.791l495.626,1345.015Z" style="fill:#092944;fill-rule:nonzero;"/><g><g><clipPath id="_clip7"><path d="M5871.001,2980.047c-795.375,-457.044 -1786.626,-362.074 -2344.576,-71.228c-562.105,293.22 -920.024,486.722 -1234.612,1193.063c-171.54,384.629 -56.389,813.776 -249.297,1430.488c-148.391,474.851 -267.697,648.765 -557.95,825.053c-302.717,184.005 -391.752,160.262 -391.752,160.262c0,0 -142.455,267.104 5.936,350.203c334.77,187.566 944.953,105.061 1155.075,-81.318c210.122,-185.785 447.547,-607.216 495.032,-1099.873c47.485,-492.658 29.678,-914.088 106.841,-1216.805c77.163,-302.717 219.619,-587.628 599.499,-819.118c379.881,-231.49 819.118,-403.623 1228.677,-468.915c409.559,-65.292 741.954,-5.936 997.187,207.747l189.94,-409.559Z"/></clipPath><g clip-path="url(#_clip7)"><path d="M392.41,498.951l0,7704.455l7496.708,0l0,-7704.455l-7496.708,0Zm4107.46,2421.739c-1513.587,433.301 -1697.592,943.766 -1792.562,1056.543c-94.97,112.777 -189.94,-59.356 -209.528,-403.623l1277.942,-1851.918l2528.581,124.648l296.782,1727.27c0,0 -587.628,-1086.221 -2101.215,-652.92Z" style="fill:#814b3f;fill-rule:nonzero;"/><path d="M3775.722,1721.692l-1277.942,1851.918c19.588,344.267 114.558,516.4 209.528,403.623c94.97,-112.777 278.975,-623.242 1792.562,-1056.543c1513.587,-433.301 2101.215,652.92 2101.215,652.92l-296.782,-1727.27l-2528.581,-124.648Z" style="fill:#ffc688;fill-rule:nonzero;"/></g></g></g><g><path d="M3239.141,5758.518c439.831,26.71 712.87,-74.789 1086.815,-294.408c103.28,-59.95 211.309,-128.21 316.369,-184.598c27.897,-14.839 55.201,-32.646 86.067,-45.111c61.731,-24.93 127.023,-44.517 194.095,-55.201c99.125,-16.62 198.844,-12.465 295.595,2.374c83.099,10.684 164.417,30.865 246.922,18.994c51.64,-7.123 98.532,-26.117 144.236,-53.421c99.719,-59.95 179.256,-154.92 255.826,-243.955c-10.091,144.83 -129.99,339.518 -258.794,411.933c-216.057,125.242 -430.334,-9.497 -655.888,16.026c-55.795,5.936 -110.403,19.588 -163.23,39.769c-26.71,10.684 -49.266,30.865 -74.789,43.924c-25.523,14.246 -50.453,29.678 -75.976,45.111c-102.093,62.918 -204.779,132.958 -309.84,192.315c-206.56,113.964 -437.456,198.844 -675.475,205.373c-78.944,2.374 -159.075,-4.155 -236.238,-17.213c-64.698,-13.058 -125.242,-36.801 -175.695,-81.912Z" style="fill:#355756;fill-rule:nonzero;"/></g><g><path d="M4490.966,5737.15c203.592,-48.672 413.714,-109.216 578.724,-243.361c23.743,-18.994 46.892,-38.582 68.26,-59.356c-0.594,20.775 -3.561,40.362 -8.31,58.763c-26.117,107.435 -112.777,219.619 -216.057,261.168c-39.175,15.433 -81.912,17.807 -123.461,18.4c-102.093,4.749 -198.844,0.594 -299.156,-35.614Z" style="fill:#355756;fill-rule:nonzero;"/></g><g><g><clipPath id="_clip8"><path d="M6013.457,5140.618c-51.64,302.124 100.906,439.237 94.97,552.014c-5.936,112.777 -108.029,152.546 -18.4,468.322c89.628,315.182 533.614,744.922 1288.627,629.771c623.242,-94.97 1127.771,-676.662 540.143,-1709.463c-236.238,-415.494 -302.717,-522.336 -427.366,-730.083c-120.493,-201.218 -121.087,-176.288 -189.94,-296.782c-166.198,-290.846 -789.44,-409.559 -908.152,-142.455c-118.713,267.104 35.614,587.628 -23.743,700.405c-62.324,118.119 -308.653,249.297 -356.138,528.272Z"/></clipPath><g clip-path="url(#_clip8)"><path d="M4873.815,2754.493l0,4653.538l3881.906,0l0,-4653.538l-3881.906,0Zm2124.958,1204.934l445.173,-106.841l154.327,575.757c-504.529,403.623 -973.444,-23.743 -599.499,-468.915Zm931.895,2864.538c0,0 -676.662,168.572 -896.281,-282.536c-229.709,-471.883 -17.807,-581.692 219.619,-646.984c237.425,-65.292 394.126,-137.707 320.524,-308.653c-65.292,-152.546 -230.896,46.892 -552.014,65.292c-314.589,17.807 -361.48,-255.232 -373.945,-510.465c-17.807,-356.138 243.361,-385.816 534.207,-415.494c370.977,-37.988 516.4,59.356 836.925,284.911l492.658,706.341l-581.692,1107.59Z" style="fill:#355756;fill-rule:nonzero;"/><path d="M7598.271,4428.342l-154.327,-575.757l-445.173,106.841c-373.945,445.173 94.97,872.538 599.499,468.915Z" style="fill:#c7ff91;fill-rule:nonzero;"/><path d="M7182.777,4725.124c-290.846,29.678 -552.014,59.356 -534.207,415.494c12.465,255.232 59.356,528.272 373.945,510.465c321.118,-18.4 486.722,-217.838 552.014,-65.292c73.602,170.946 -83.099,243.361 -320.524,308.653c-237.425,65.292 -449.328,175.101 -219.619,646.984c219.619,451.108 896.281,282.536 896.281,282.536l581.692,-1107.59l-492.658,-706.341c-320.524,-225.554 -465.947,-322.899 -836.925,-284.911Z" style="fill:#c7ff91;fill-rule:nonzero;"/></g></g></g><g><clipPath id="_clip9"><path d="M6417.673,3869.799c52.827,273.633 376.913,449.921 882.629,184.005c-212.496,-343.673 -176.882,-800.717 -218.431,-1038.143c-20.775,-117.526 -160.262,-71.228 -373.945,249.297c-213.683,320.524 -290.253,604.841 -290.253,604.841Z"/></clipPath><g clip-path="url(#_clip9)"><rect x="5900.68" y="2119.38" width="1691.656" height="2190.25" style="fill:#af9d9d;"/></g><clipPath id="_clip10"><path d="M6417.673,3869.799c52.827,273.633 376.913,449.921 882.629,184.005c-212.496,-343.673 -176.882,-800.717 -218.431,-1038.143c-20.775,-117.526 -160.262,-71.228 -373.945,249.297c-213.683,320.524 -290.253,604.841 -290.253,604.841Z"/></clipPath><g clip-path="url(#_clip10)"><path d="M7147.163,2914.755c-178.069,243.361 -385.223,610.183 -261.168,985.316c37.395,113.371 207.747,136.52 445.173,5.936l77.163,-474.851l-261.168,-516.4Z" style="fill:#e4d2ae;fill-rule:nonzero;"/></g></g><path d="M4992.527,3597.353c421.43,-106.841 777.568,-219.619 884.41,-118.713c131.771,124.055 255.232,563.885 302.717,997.187c0,0 -313.402,272.446 -691.502,465.947c-86.067,43.924 -178.663,78.944 -276.007,97.938l-219.619,-1442.359Z" style="fill:#092944;fill-rule:nonzero;"/><g><path d="M3713.991,5202.942c-324.086,56.389 -444.579,-20.181 -503.342,-165.604c-58.763,-146.017 -147.204,-369.79 -144.236,-486.129c2.968,-116.338 0.594,-287.285 334.77,-377.506c331.802,-88.441 439.237,15.433 481.38,175.695c39.175,150.172 78.944,300.343 124.648,452.295c48.672,162.636 30.865,344.86 -293.22,401.249Zm-99.125,-264.136c51.64,-16.026 68.853,-29.678 77.757,-47.485c7.123,-14.246 16.026,-52.827 -11.871,-142.455c-29.678,-94.97 -59.356,-207.747 -77.163,-249.297c-17.807,-41.549 -39.175,-77.757 -136.52,-49.859c-96.157,27.304 -94.97,61.731 -89.035,109.216c5.936,47.485 59.356,210.715 100.906,332.396c12.465,36.801 43.33,75.976 135.926,47.485Z" style="fill:#97e7ff;fill-rule:nonzero;"/><path d="M4270.754,4998.163c-30.865,10.091 -49.859,-0.594 -60.543,-34.427c-17.213,-52.827 -30.865,-96.157 -36.801,-137.707c-5.936,-41.549 -11.871,-71.228 20.775,-80.725c115.151,-34.427 230.896,-67.666 347.235,-101.499c21.962,-6.529 29.678,-26.71 24.336,-47.485c-7.716,-29.678 -21.962,-37.988 -45.111,-34.427c-67.666,9.497 -135.332,18.994 -202.405,27.897c-127.023,16.62 -221.399,-13.652 -259.981,-160.856c-11.871,-45.704 -23.743,-92.002 -36.207,-137.707c-38.582,-149.578 40.362,-257.607 210.122,-300.937c122.274,-30.865 244.548,-62.324 366.822,-93.783c32.646,-8.31 51.64,1.781 61.731,33.833c16.026,51.046 30.865,101.499 45.111,151.952c8.903,32.052 -1.781,49.859 -35.02,58.763c-103.28,27.304 -205.967,54.014 -308.059,81.318c-22.555,5.936 -31.459,24.93 -25.523,48.079c5.936,23.149 23.149,35.02 46.298,32.052c67.666,-8.903 135.926,-17.807 203.592,-26.71c128.803,-15.433 224.961,13.058 258.2,154.92c10.684,44.517 20.775,89.035 30.865,133.552c32.646,145.423 -48.672,257.013 -210.122,308.059c-132.365,42.143 -264.136,83.692 -395.313,125.835Z" style="fill:#97e7ff;fill-rule:nonzero;"/><path d="M5113.614,4734.621c-32.052,10.091 -49.266,0 -55.795,-32.052c-59.356,-277.194 -115.151,-545.485 -205.373,-820.898c-10.684,-32.052 -0.594,-49.859 32.052,-58.169c70.634,-18.4 141.862,-37.395 213.089,-55.795c27.897,-7.123 48.672,-1.781 74.789,21.368c64.105,57.576 125.835,113.964 186.379,169.166c13.652,11.871 19.588,17.213 30.272,14.246c4.155,-1.187 8.31,-2.374 12.465,-3.561c10.684,-2.968 13.058,-10.091 18.4,-27.897c20.181,-77.757 37.988,-155.514 52.827,-232.083c5.936,-30.865 19.588,-45.111 47.485,-52.827c72.415,-18.994 145.423,-37.988 219.025,-56.389c33.833,-8.31 54.608,0.594 66.479,29.678c102.686,251.077 166.198,480.786 197.657,749.077c3.561,30.865 -1.781,61.137 -44.517,85.473c-64.698,36.207 -153.733,59.356 -208.341,69.447c-36.207,6.529 -49.859,1.781 -54.608,-29.678c-20.775,-147.204 -48.079,-291.44 -84.286,-434.489c-15.433,52.234 -32.052,105.061 -49.266,157.888c-10.091,33.24 -28.491,50.453 -63.511,61.137c-17.807,5.342 -36.207,10.684 -54.014,16.026c-35.02,10.684 -57.576,5.342 -80.131,-18.4c-36.207,-37.395 -73.602,-74.789 -110.996,-112.777c35.614,146.017 64.698,292.627 91.409,441.611c5.342,31.459 -6.529,50.453 -39.175,60.543c-64.105,19.588 -128.803,39.175 -192.315,59.356Z" style="fill:#97e7ff;fill-rule:nonzero;"/></g></g></g><g id="Layer_2"></g></svg>